/* XPM */
static char *a936c6e007db4478fd31be8c2b0ce41dhtpfyl49eckMAFMK[] = {
/* columns rows colors chars-per-pixel */
"47 47 51 1 ",
"  c None",
". c #347E67",
"X c #37826B",
"o c #3B866F",
"O c #3F8B73",
"+ c #428F77",
"@ c #46937B",
"# c #4A987F",
"$ c #4D9C83",
"% c #589F88",
"& c #599F89",
"* c #5A9F8A",
"= c #51A188",
"- c #5BA18B",
"; c #5DA48E",
": c #58A990",
"> c #5CAE94",
", c #60A892",
"< c #63AC95",
"1 c #60B298",
"2 c #66B099",
"3 c #63B69C",
"4 c #69B49D",
"5 c #67BBA0",
"6 c #6CB8A0",
"7 c #6BBFA4",
"8 c #6FBCA4",
"9 c #6FC4A9",
"0 c #72C0A8",
"q c #70C5AA",
"w c #75C4AB",
"e c #74C9AE",
"r c #78C8AF",
"t c #75CBB0",
"y c #77CCB1",
"u c #7BCCB2",
"i c #79CEB3",
"p c #7AD0B5",
"a c #7ED0B6",
"s c #7CD2B7",
"d c #7ED3B8",
"f c #7FD5BA",
"g c #81D4BA",
"h c #81D7BC",
"j c #83D9BE",
"k c #84D8BD",
"l c #84DABF",
"z c #86DCC1",
"x c #87DCC1",
"c c #88DEC3",
"v c #8AE0C5",
/* pixels */
"                   &&&&&&&&&                   ",
"               &-----------*--&&               ",
"             &------;------&-----&             ",
"           &-----,6wugusgugw6,-----&           ",
"         &----;8kvvvvvvvvvvvvvk8;----&         ",
"        %----0vvvvvvvvvvvvvcvvvvv0----*        ",
"       &---4jvvvvchstttttttshcvvvvk4---*       ",
"      &---0vvvvji9999999qq99qqikvvvv0---&      ",
"     &---ecvvxp99999999999999999yxvvve;*-&     ",
"     ---6vvvz99999999999999999999qfvvc4;--&    ",
"    &--6vcvh99999999999999999999999ivvv6---    ",
"   &--<xvczq999999999999999999999999hcvc<--&   ",
"   ---gvvc999999999999999999999999999jvvg---   ",
"  &--8vvce999999999999999999999999999qxvv8--&  ",
"  --;xvvd99999999999999999999999999999ivvx;--  ",
" &--0vvxq099999999999999999999999999999xvv0--& ",
" --;kvci9999999999999999999999999999999pvvk--- ",
" --<vvvq99999999999999999999999999999999xvv<-- ",
" --6vvh99999991+++@5999999993+++@3999999gvv8---",
"&-;uvvi9999993.....o79999997o....o799999pvvi--%",
"&--gvvt999999+......@999999@......@99999evvg---",
"---vvvqq99999........999999........999999vvv---",
"---vvv9999999........999999........999999vvv---",
"---vvc9999999+......@999999@......@999999vvv---",
"--*cvvqq999991.....X39999993X...XX399999qvvv---",
"--;cvvq09999993@++$5999999995#++$59999990vvc---",
"&--svveq99999999999999999999999999999999yvvs--&",
"&--uvvp999999999999599999999599999999999ivvu--&",
" --8vvf99999999999=X39999991.#9999999999fvv0-- ",
" --<vvx999999999991.O799997oX59999999999xvv<-- ",
" ---jvvy99999999999:..$==$..>9999999999yvvx-&- ",
" ---0vvx9999999999995@...X#799999999999xvvw-;& ",
"  --;xvvi99999999999999999999999999999ivvv;--  ",
"  &--0vvcq999999999999999999999999999qccvw--&  ",
"   --;kvvj99999999999999999999999999qjvvk;--   ",
"   &--2vvvf9999999999999999999999999dvvv4;-&   ",
"    ---0vvvjq9999999999999999999999fcvvw---    ",
"     ---evvvkq99999999999999999999jvvve---     ",
"     &--;6vvvxi99999999999999999exvvv8---&     ",
"      &-&;6vvvvzy9999999999999ejvvvv6---&      ",
"       &;&-4gvvvvcstq099999ydkvvvvg4---&       ",
"        &---;wvvvvcvvvvvvvvvvvvcvw;---&        ",
"         &&---,rccvcvvvvvvvvvvcr,----&         ",
"           &----;4wgvvvvvvvgw4;----&           ",
"             &;*;&---------------&&            ",
"               &&;-------------&               ",
"                  &&-------&&                  "
};
