/* XPM */
static char *result[] = {
/* columns rows colors chars-per-pixel */
"21 21 7 1 ",
"  c #347E67",
". c #6FC4A9",
"X c gray54",
"o c #B6B6B6",
"O c gray80",
"+ c #E2E2E2",
"@ c None",
/* pixels */
"@@@@@@@@@@@@@@@@@@@@@",
"@@@@@@@XXXXXXX@@@@@@@",
"@@@@@XX+++++++XX@@@@@",
"@@@@X++OOOOOOO++X@@@@",
"@@@X+OOoooooooOO+X@@@",
"@@X+OooOOOOOOOooO+X@@",
"@@X+OoOO.....OOoO+X@@",
"@X+OoOO.......OOoO+X@",
"@X+OoO.........OoO+X@",
"@X+OoO.........OoO+X@",
"@X+OoO..  .  ..OoO+X@",
"@X+OoO..  .  ..OoO+X@",
"@X+OoO.........OoO+X@",
"@X+OoO...   ...OoO+X@",
"@@X+Oo.........oO+X@@",
"@@X+Ooo.......ooO+X@@",
"@@@X+OOoooooooOO+X@@@",
"@@@@X++OOOOOOO++X@@@@",
"@@@@@XX+++++++XX@@@@@",
"@@@@@@@XXXXXXX@@@@@@@",
"@@@@@@@@@@@@@@@@@@@@@"
};
