/* XPM */
static char *result[] = {
/* columns rows colors chars-per-pixel */
"21 21 3 1 ",
"  c #808393",
". c #757887",
"X c #838796",
/* pixels */
"XXXXXXXXXXXXXXXXXXXXX",
"XXXXXXXXXXXXXXXXXXXXX",
"XXXXXXXXXXXXXXXXXXXXX",
"XXXXXXXXXXXXXXXXXXXXX",
"XXXXXXXXXXXXXXXXXXXXX",
"XXX        XXXXXXXXXX",
"XXX........XXXXXXXXXX",
"XXX........XXXXXXXXXX",
"XXX........XXXXXXXXXX",
"XXX........XXXXXXXXXX",
"XXXXXXXXXXXXXXXXXXXXX",
"XXXXXXX      XXXXXXXX",
"XXXXXXX......XXXXXXXX",
"XXXXXXX......XXXXXXXX",
"XXXXXXXXXXXXXXXXXXXXX",
"XXXXXXXXXXXXXXXXXXXXX",
"XXXXXXXXXXXXXXXXXXXXX",
"XXXXXXXXXXXXXXXXXXXXX",
"XXXXXXXXXXXXXXXXXXXXX",
"XXXXXXXXXXXXXXXXXXXXX",
"XXXXXXXXXXXXXXXXXXXXX"
};
