/* XPM */
static char *result[] = {
/* columns rows colors chars-per-pixel */
"21 21 3 1 ",
"  c #AFE8EE",
". c #A2E7EE",
"X c #8BE1EB",
/* pixels */
"..XXXXX......XXXX....",
"..........XXXXXXXXXX.",
"XX.....XXXXXXXXXXXXXX",
"XXXXXXXXXXXXXXXX XXXX",
"XXXXXXXXXXXXXXXX XXXX",
"XXXXXXXXXXXXXXX   XXX",
"XXXXXXXXXXXXX       X",
"XXX XXXXXXXXX..   XXX",
"XX   XXXXX...... ...X",
"..X XXX......XXX ....",
"..........XXXXXXXXXX.",
"XX.....XXXXXX....XXXX",
"XXXXXXXXXX..........X",
"..XXXXX..............",
".....................",
".............XXXX....",
".......... XXXXXXXXX.",
"XX.....XXXXXXXXXXXXXX",
"XXXXXXXXXXXXXXXXXXXXX",
"XXXXXXXXXXXXX....XXXX",
"XXXXXXXXXX..........X"
};
