/* XPM */
static char *_9f4c0d669174f81a4df2252be42a90eeGR2q0e0A0CQ74ik[] = {
/* columns rows colors chars-per-pixel */
"69 95 94 2 ",
"   c None",
".  c #5C9785",
"X  c #5E9A88",
"o  c #619E8B",
"O  c #64A18E",
"+  c #67A592",
"@  c #6DAC98",
"#  c #70AF9C",
"$  c #73B39F",
"%  c #76B6A2",
"&  c #79BAA6",
"*  c #7CBDA9",
"=  c #6DC1A7",
"-  c #6EC1A7",
";  c #6CC2A7",
":  c #6DC2A7",
">  c #6EC2A7",
",  c #6DC2A8",
"<  c #6FC4A9",
"1  c #70C4AA",
"2  c #71C5AA",
"3  c #72C5AB",
"4  c #73C5AB",
"5  c #74C6AC",
"6  c #75C6AC",
"7  c #76C7AD",
"8  c #77C7AE",
"9  c #7FC1AC",
"0  c #78C7AE",
"q  c #78C8AE",
"w  c #79C8AF",
"e  c #7AC8AF",
"r  c #7BC9B0",
"t  c #7CC9B0",
"y  c #7DCAB1",
"u  c #82C4B0",
"i  c #81CBB3",
"p  c #85C8B3",
"a  c #88CBB6",
"s  c #8BCDB9",
"d  c #8ACFB9",
"f  c #8BCFBA",
"g  c #8CCFBB",
"h  c #8DCFBB",
"j  c #8DD0BB",
"k  c #8ED0BC",
"l  c #8FD1BC",
"z  c #90D1BD",
"x  c #91D1BD",
"c  c #92D2BE",
"v  c #93D2BE",
"b  c #93D2BF",
"n  c #94D3BF",
"m  c #95D3C0",
"M  c #96D2C0",
"N  c #96D4C0",
"B  c #97D4C1",
"V  c #98D5C1",
"C  c #99D5C2",
"Z  c #9AD6C3",
"A  c #9BD6C3",
"S  c #9CD5C3",
"D  c #9CD6C3",
"F  c #9FD6C4",
"G  c #A0D7C6",
"H  c #A0D8C6",
"J  c #A1D8C7",
"K  c #A5DAC9",
"L  c #A8DACA",
"P  c #A8DBCB",
"I  c #AFDDCF",
"U  c #AFDECF",
"Y  c #B4DFD2",
"T  c #B6E1D3",
"R  c #B7E1D4",
"E  c #B9E2D6",
"W  c #BDE4D8",
"Q  c #C0E5D9",
"!  c #C9E8DE",
"~  c #D2ECE4",
"^  c #D3EDE5",
"/  c #DAF0E9",
"(  c #DBF0E9",
")  c #E2F3ED",
"_  c #E4F3EE",
"`  c #E9F6F2",
"'  c #EDF7F4",
"]  c #F0F9F6",
"[  c #F6FBF9",
"{  c #F7FCFA",
"}  c gray99",
"|  c #FDFDFD",
" . c #FEFEFE",
".. c white",
/* pixels */
"                                                                                                                                          ",
"                                                  | | | | | | | | | | | | | | | | | | |                                                   ",
"                                            | | | | | | | | | | | | | | | | | | | | | | | | |                                             ",
"                                        | | | | | | | | | | | | | | | | | | | | | | | | | | | | |                                         ",
"                                    | | | | | | | | | | | | | | | | | | | | | | | | | | | | | | | | |                                     ",
"                                  | | | | | | | | | | | | | | | | | | | | | | | | | | | | | | | | | | | |                                 ",
"                              | | | | | | | | | | |                                   | | | | | | | | | | |                               ",
"                            | | | | | | | | | |                                             | | | | | | | | |                             ",
"                          | | | | | | | | |                   S S A S S S S                     | | | | | | | | |                         ",
"                        | | | | | | | |               M g g d g k j d d d g g d h M                 | | | | | | | |                       ",
"                      | | | | | | |               c d g h d g d d g h d g d g d d d d g G             | | | | | | |                       ",
"                    | | | | | | |             c d d g d g d d g g d g d d g d g g h d h d j             | | | | | | |                     ",
"                  | | | | | | |             g d g d g d g d g d d g d g d g g d d g j j d d j m             | | | | | |                   ",
"                | | | | | | |           M g d g d g d g d g d g g d g d g d d d g d k m m B B B D           | | | | | | |                 ",
"                | | | | | |           S d g g d g d g d g d g d d g d g d g d j k A A Z A Z Z Z Z J           | | | | | | |               ",
"              | | | | | |             d g d d g d g d g d g d g g d g d g d g k Z Z A B B Z Z Z Z Z P           | | | | | |               ",
"            | | | | | |             g d g d g d g d g d g d g d g d g d j j k B Z Z Z Z Z Z Z Z Z Z Z T           | | | | | |             ",
"            | | | | | |           h d g d g d g d g d g d g d g d g d g d j B Z Z Z Z Z Z Z Z Z Z Z Z Z             | | | | |             ",
"          | | | | | |           c d d d g d g d g d g d g d g d g d d d d m Z Z Z Z Z Z Z Z Z Z Z Z Z Z S           | | | | | |           ",
"          | | | | |             d h h d d g d g d g d g d g d g d g d j j B Z Z Z Z Z Z Z Z Z Z Z Z Z Z A I           | | | | | |         ",
"        | | | | | |           g g d g d g d g d g d g d g d g d g d g d k Z Z Z Z Z Z Z Z Z Z Z Z Z Z Z Z Z           | | | | | |         ",
"        | | | | |             d d g d g d g d g d g d g d g d g d g d g c Z Z Z Z Z Z Z Z Z Z Z Z Z Z Z Z Z E           | | | | |         ",
"        | | | | |           c d g d g d g d g d g d g d g d g d g d g d c Z Z Z Z Z Z Z Z Z Z Z Z Z Z Z Z Z G           | | | | | |       ",
"      | | | | | |           g d d g d g d g d g d g d g d g d g d g d g c Z Z Z Z Z Z Z Z Z Z Z Z Z Z Z Z Z A             | | | | |       ",
"      | | | | |             d g g d g d g d g d g d g d g d g d g d g d k Z Z Z Z Z Z Z Z Z Z Z Z Z Z Z Z Z Z K           | | | | |       ",
"      | | | | |           M g d d g d g d g d g d g d g d g d g d g d g j Z Z Z Z Z Z Z Z Z Z Z Z Z Z Z Z Z Z M           | | | | |       ",
"      | | | | |           c d g g d g d g d g d g d g d g d g d g d g d d m Z Z Z Z Z Z Z Z Z Z Z Z Z Z Z Z M c             | | | | |     ",
"    | | | | | |           d g d d g d g d g d g d g d g d g d g d g d g d j B Z Z Z Z Z Z Z Z Z Z Z Z Z Z A g d             | | | | |     ",
"    | | | | |             k d g g d g d g d g d g d g d g d g d d g d g d g j B Z Z Z Z Z Z Z Z Z Z Z Z Z c d g             | | | | |     ",
"    | | | | |             j g d d g d g d g d g d g d g d g d g g d g d g d g g B Z Z Z Z Z Z Z Z Z A A k d g d             | | | | |     ",
"    | | | | |             d d g g d g d g d g d g d g d g d g d d g d g d g d g d m Z Z Z Z A B Z Z M j d g j j             | | | | |     ",
"    | | | | |             j d d d g d g d g d g d g d g d g d g g d g d g d g d d j j c B B m B m k d d d d d k             | | | | |     ",
"    | | | | |             g d g d g d g d g d g g d g d g d g d d g d g d g d g d g d g d g d g d g d g d g d g             | | | | |     ",
"    | | | | |             d g d g d g d g d g d d g d g d g d d g d g d g d g d g d g d g d g d g d g d g d g d             | | | | |     ",
"    | | | | |             d d g d g d g d g d g g d g d g d d h d g d g d g d g d g d g d g d g d g d g d g d g             | | | | |     ",
"    | | | | |             g g d g d g d g d g d d g d g d g d d g d g d g d g d g d g d g d g d g d g d g d g d             | | | | |     ",
"    | | | | |             g d g d g d g d g d g g d g d 9 $ $ $ % a g d d g d g d g d g d d & $ $ $ & d d d d g             | | | | |     ",
"    | | | | |             d g d g d g d g d g d d g g # . . . . . X p g g d g d g d g d d + . . . . . + g d g d             | | | | |     ",
"    | | | | | |           g d g d g d g d g d g d g * . . . . . . . O d d g d g d g g g @ . . . . . . . @ g g g             | | | | |     ",
"      | | | | |           d g d g d g d g d g d g d X . . . . . . . . % g d g d g d g u . . . . . . . . . u g d           | | | | | |     ",
"      | | | | |           k d g d g d g d g d g g u . . . . . . . . . + d g d g d g d % . . . . . . . . . $ g d           | | | | |       ",
"      | | | | |           j g d g d g d g d g d g * . . . . . . . . . + g d g d g d d $ . . . . . . . . . % d g           | | | | |       ",
"      | | | | | |         d d g d g d g d g d g g p . . . . . . . . . @ d g d g g d d & . . . . . . . . . & g d           | | | | |       ",
"        | | | | |         j d d g d g d g d g d d g + . . . . . . . . 9 g d g d d g d a X . . . . . . . X a d g         | | | | | |       ",
"        | | | | | |       g d g d g d g d g d g d g p X . . . . . . @ j j j d g g d g d * . . . . . . . * d g d         | | | | |         ",
"        | | | | | |       d g d g d g d g d g d g d d a + . . . . & d g g d g d d g d g g 9 X . . . X u g d d g       | | | | | |         ",
"          | | | | | |     d d g d g d g d g d g d g d g d u 9 9 a d g d d g d g g d g d g d g 9 9 9 d d d g j j       | | | | |           ",
"          | | | | | |     g g d g d g d g d g d g d g d d d d g d g d g g d g d d g d g g g d g g d g d d d d k     | | | | | |           ",
"            | | | | | |   j j d g d g d g d g d g d g d g d g d a % u g d g d g d g d g a % a d d g d g g d g d   | | | | | |             ",
"            | | | | | | | k d d d g d g d g d g d g d g d g d g % . @ g g d g d g d g g @ . % d g d g d d d d g   | | | | | |             ",
"              | | | | | | W d g g d g d g d g d g d g d g d g d u X . @ a d d g d g a % . . a d d g d g d d j A | | | | | |               ",
"                | | | | | | R d d g d g d g d g d g d g d g d g j & . . X % 9 9 9 % o . . % d g g d g d j j k ' | | | | |                 ",
"                  | | | | | | W j j d d g d g d g d g d g d g d g g * O . . . . . . . o % d g d d g d g d Z ' | | | | | |                 ",
"                  | | | | | | | ^ k d d d g d g d g d g d g d g g d g d % + + + + + % a g d d g g d d h G { | | | | | |                   ",
"                    | | | | | | | ^ g d g d d d g d g d g d g d d g d g d g d g d g d g d g d d d g d R { | | | | | |                     ",
"                      | | | | | | | ] J d g d d d g d g d g d g g d g d g d g d g d g d g d d j g d ^ | | | | | | |                       ",
"                  < , < ! | | | | | | | W k j j d g d g d g d d d g d g d g d g g d g d g d j j P { | | | | | | _ r < = =                 ",
"              = < 2 < < < ! | | | | | | | ] U k g d g d g d g d g d g d g d g d d d d g d g J ( | | | | | | | ) w < < < < < ,             ",
"          = < < < < < < < < Q { | | | | | | | ] W c d g d g j d d g d g d g d g d d j k R _ | | | | | | | | Q w < < < < < < < < =         ",
"      = < 2 < < < < < < < < < j ] | | | | | | | | { / W J d j j g d g d g d g d A T ^ { | | | | | | | | { P < < < < < < < < < < 2 =       ",
"    = < < < < < < < < < < < < < w ! | | | | | | | | | | | | _ _ ) _ ) _ ) ) ) | | | | | | | | | | | | ^ w < < < < < < < < < < < < < <     ",
"  < < < < < < < < < < < < < < < < < c ] | | | | | | | | | | | | | | | | | | | | | | | | | | | | | ] S 2 < < < < < < < 2 < < < < < < < <   ",
"  < < < < < < ,           < < < < < < < D _ | | | | | | | | | | | | | | | | | | | | | | | | | ] K < < < < < < <           = < < < < < < = ",
"  < < < < <               < < < < < < < 2 2 j ! ] | | | | | | | | | | | | | | | | | | | ] ! c < < < < < < < < <               = < < < 2 = ",
"  < < < =                 < < < < < < < < < < < < n T / { | | | | | | | | | | | { / E c < < < < < 2 2 3 2 2 < <                 = 2 < <   ",
"    = =                   < < < < < < < < < < < < < < < < i c B c c B c c B c i 2 < < < < < < < , y y y y , < <                   = =     ",
"                          < < < < < < < < < < < < < < < < < < < < < < < < < < < < < < < < < < < w y y y y w < <                           ",
"                          < < < < < < < < < < < < < < < < < < < < < < < < < < < < < < < < < < < y y y y y y < <                           ",
"                          < < < < < < < < < < < < < < < < < < < < < < < < < < < < < < < < < < < r y y y y r , 2                           ",
"                          < < < < < < < < < < < < < < < < < < < < < < < < < < < < < < < < < < < 2 y y y y 2 < <                           ",
"                          < < < < < < < < < < < < < < < < < < < < < < < < < < < < < < < < < < < < 2 6 6 2 < < <                           ",
"                          = < < < < < < < < < < < < < < < < < < < < < < 2 3 q 6 6 2 < < < < < < < < < < < < 2 =                           ",
"                          = 2 < < < < < < < < < < < < < < < < < < < < < 6 y y y y w < < < < 2 q 6 2 2 < < < < =                           ",
"                            < < < < < < < < < < < < < < < < < < < < < 3 y y y y y y w 2 < < w y y y 2 < < < <                             ",
"                            = < < < < < < < < < < < < < < < < < < < 2 6 y y y y y y y 2 < < w y y y 2 , < < =                             ",
"                              2 < < < < < < < < < < < < < < < < < < < r y y y y y y y 2 < < 5 y y w < 2 < 2                               ",
"                              = < < < < < < < < < < < < < < < < < < < 6 y y y y y y y 2 < < < 2 2 < < < < =                               ",
"                                = < < < < < < < < < < < < < < < < < < 2 y y y y y y 6 2 < < < < < < < < =                                 ",
"                                = < < < < < < < < < < < < < < < < < < < , r y y y 6 < < < < < < < < < =                                   ",
"                                = < < < < < < < < < < < < < < < < < < 2 , 1 3 2 2 < < < < < < < < < < ,                                   ",
"                                = < < < < < < < < < < < < < < < < < < < < < < < < < < < < < < < < < < =                                   ",
"                                = < < < < < < < < < < < < < < < < < < < < < < < < < < < < < < < < < <                                     ",
"                                = < < < < < < < < ;   < = < < < < < < < < < < < = = < < < < < < < < <                                     ",
"                                < < < < < < < < <                                   < < < < < < < < 2                                     ",
"                                < < < < < < < < =                                 ; < < < < < < < < ;                                     ",
"                              ; < < < < < < < < ;                                 = < < < < < < < < ;                                     ",
"                              < < < < < < < < <                                   2 < < < < < < < 2                                       ",
"                            = < < < < < < < < ;                                   2 < < < < < < < ;                                       ",
"                          = < < < < < < < 2 ;                                   = < < < < < < < <                                         ",
"                        = 2 < < < < < < < 2                                   < < < < < < < < < =                                         ",
"                        2 < < < < < < < <                                     < < < < < < < < <                                           ",
"                        = < < < < < < =                                     < < < < < < < < 2 ;                                           ",
"                          = < < =                                         = < < < < < < 2 < =                                             ",
"                                                                          ; < < < < < < ;                                                 ",
"                                                                            = < 2 ; ;                                                     "
};
