/* XPM */
static char *result[] = {
/* columns rows colors chars-per-pixel */
"21 21 7 1 ",
"  c #5C9785",
". c #6FC4A9",
"X c #7DCAB1",
"o c #8BCFBA",
"O c #9AD6C3",
"+ c white",
"@ c None",
/* pixels */
"@@@@@@@@+++++@@@@@@@@",
"@@@@@@+++++++++@@@@@@",
"@@@@@+++ooooo+++@@@@@",
"@@@@++ooooooooo++@@@@",
"@@@@+ooooooOOooo+@@@@",
"@@@++ooooooOOooo++@@@",
"@@@++ooooooooooo++@@@",
"@@@++ooooooooooo++@@@",
"@@@++oo  ooo  oo++@@@",
"@@@++oo  ooo  oo++@@@",
"@@@@+ooooooooooo+@@@@",
"@@@@+oooo   oooo+@@@@",
"@@@..+ooooooooo+..@@@",
"@@....++ooooo++....@@",
"@@..@...+++++...@..@@",
"@@..@...........@..@@",
"@@@@@.........X.@@@@@",
"@@@@@.......X...@@@@@",
"@@@@@@.........@@@@@@",
"@@@@@@..@@@@@..@@@@@@",
"@@@@@@..@@@@@..@@@@@@"
};
