/* XPM */
static char *result[] = {
/* columns rows colors chars-per-pixel */
"21 21 3 1 ",
"  c #1EA7E1",
". c white",
"X c None",
/* pixels */
"                     ",
" ................... ",
" ................... ",
" ..               .. ",
" .. XXXXXXXXXXXXX .. ",
" .. XXXXXXXXXXXXX .. ",
" .. XXXXXXXXXXXXX .. ",
" .. XXXXXXXXXXXXX .. ",
" .. XXXXXXXXXXXXX .. ",
" .. XXXXXXXXXXXXX .. ",
" .. XXXXXXXXXXXXX .. ",
" .. XXXXXXXXXXXXX .. ",
" .. XXXXXXXXXXXXX .. ",
" .. XXXXXXXXXXXXX .. ",
" .. XXXXXXXXXXXXX .. ",
" .. XXXXXXXXXXXXX .. ",
" .. XXXXXXXXXXXXX .. ",
" ..               .. ",
" ................... ",
" ................... ",
"                     "
};
